<svg xmlns="http://www.w3.org/2000/svg" xmlns:xlink="http://www.w3.org/1999/xlink" width="1024" zoomAndPan="magnify" viewBox="0 0 768 767.999994" height="1024" preserveAspectRatio="xMidYMid meet" version="1.2"><defs><clipPath id="1ac01ce7a9"><path d="M 0 13.613281 L 767 13.613281 L 767 754.386719 L 0 754.386719 Z M 0 13.613281 "/></clipPath><clipPath id="e4ce655497"><path d="M 38.398438 13.613281 L 729.601562 13.613281 C 750.808594 13.613281 768 30.804688 768 52.011719 L 768 715.988281 C 768 737.195312 750.808594 754.386719 729.601562 754.386719 L 38.398438 754.386719 C 17.191406 754.386719 0 737.195312 0 715.988281 L 0 52.011719 C 0 30.804688 17.191406 13.613281 38.398438 13.613281 Z M 38.398438 13.613281 "/></clipPath></defs><g id="61dba3baa8"><rect x="0" width="768" y="0" height="767.999994" style="fill:#ffffff;fill-opacity:1;stroke:none;"/><rect x="0" width="768" y="0" height="767.999994" style="fill:#ffffff;fill-opacity:1;stroke:none;"/><g clip-rule="nonzero" clip-path="url(#1ac01ce7a9)"><g clip-rule="nonzero" clip-path="url(#e4ce655497)"><path style=" stroke:none;fill-rule:nonzero;fill:#0c0b0b;fill-opacity:1;" d="M 0 13.613281 L 766.816406 13.613281 L 766.816406 754.386719 L 0 754.386719 Z M 0 13.613281 "/></g></g><path style=" stroke:none;fill-rule:nonzero;fill:#000000;fill-opacity:1;" d="M 66.097656 549.640625 L 225.050781 390.6875 "/><path style=" stroke:none;fill-rule:nonzero;fill:#06a271;fill-opacity:1;" d="M 52.050781 535.589844 L 211 376.640625 C 211.460938 376.179688 211.941406 375.742188 212.445312 375.328125 C 212.949219 374.917969 213.46875 374.53125 214.011719 374.167969 C 214.550781 373.808594 215.109375 373.472656 215.683594 373.164062 C 216.257812 372.859375 216.84375 372.582031 217.445312 372.332031 C 218.046875 372.082031 218.660156 371.863281 219.28125 371.675781 C 219.902344 371.484375 220.535156 371.328125 221.171875 371.203125 C 221.8125 371.074219 222.453125 370.980469 223.101562 370.914062 C 223.75 370.851562 224.398438 370.820312 225.050781 370.820312 C 225.699219 370.820312 226.347656 370.851562 226.996094 370.914062 C 227.644531 370.980469 228.289062 371.074219 228.925781 371.203125 C 229.5625 371.328125 230.195312 371.484375 230.816406 371.675781 C 231.441406 371.863281 232.050781 372.082031 232.652344 372.332031 C 233.253906 372.582031 233.839844 372.859375 234.414062 373.164062 C 234.988281 373.472656 235.546875 373.808594 236.085938 374.167969 C 236.628906 374.53125 237.152344 374.917969 237.652344 375.328125 C 238.15625 375.742188 238.636719 376.179688 239.097656 376.640625 C 239.558594 377.097656 239.996094 377.582031 240.40625 378.082031 C 240.820312 378.585938 241.207031 379.109375 241.570312 379.648438 C 241.929688 380.191406 242.265625 380.75 242.570312 381.324219 C 242.878906 381.894531 243.15625 382.484375 243.40625 383.085938 C 243.65625 383.6875 243.875 384.296875 244.0625 384.921875 C 244.25 385.542969 244.410156 386.175781 244.535156 386.8125 C 244.664062 387.449219 244.757812 388.09375 244.824219 388.742188 C 244.886719 389.386719 244.917969 390.039062 244.917969 390.6875 C 244.917969 391.339844 244.886719 391.988281 244.824219 392.636719 C 244.757812 393.285156 244.664062 393.925781 244.535156 394.566406 C 244.410156 395.203125 244.25 395.832031 244.0625 396.457031 C 243.875 397.078125 243.65625 397.691406 243.40625 398.292969 C 243.15625 398.894531 242.878906 399.480469 242.570312 400.054688 C 242.265625 400.628906 241.929688 401.1875 241.570312 401.726562 C 241.207031 402.269531 240.820312 402.789062 240.40625 403.292969 C 239.996094 403.796875 239.558594 404.277344 239.097656 404.738281 L 80.148438 563.6875 C 79.6875 564.148438 79.207031 564.585938 78.703125 565 C 78.199219 565.410156 77.679688 565.796875 77.136719 566.160156 C 76.597656 566.519531 76.039062 566.855469 75.464844 567.160156 C 74.890625 567.46875 74.304688 567.746094 73.703125 567.996094 C 73.101562 568.246094 72.488281 568.464844 71.867188 568.652344 C 71.242188 568.839844 70.613281 569 69.972656 569.125 C 69.335938 569.253906 68.695312 569.347656 68.046875 569.414062 C 67.398438 569.476562 66.75 569.507812 66.097656 569.507812 C 65.449219 569.507812 64.796875 569.476562 64.152344 569.414062 C 63.503906 569.347656 62.859375 569.253906 62.222656 569.125 C 61.582031 569 60.953125 568.839844 60.332031 568.652344 C 59.707031 568.464844 59.097656 568.246094 58.496094 567.996094 C 57.894531 567.746094 57.304688 567.46875 56.730469 567.160156 C 56.160156 566.855469 55.601562 566.519531 55.058594 566.160156 C 54.519531 565.796875 53.996094 565.410156 53.492188 565 C 52.992188 564.585938 52.507812 564.148438 52.050781 563.6875 C 51.589844 563.230469 51.152344 562.746094 50.738281 562.242188 C 50.328125 561.742188 49.941406 561.21875 49.578125 560.679688 C 49.214844 560.136719 48.882812 559.578125 48.574219 559.003906 C 48.269531 558.429688 47.992188 557.84375 47.742188 557.242188 C 47.492188 556.640625 47.273438 556.03125 47.085938 555.40625 C 46.894531 554.785156 46.738281 554.152344 46.609375 553.515625 C 46.484375 552.878906 46.390625 552.234375 46.324219 551.585938 C 46.261719 550.9375 46.230469 550.289062 46.230469 549.640625 C 46.230469 548.988281 46.261719 548.339844 46.324219 547.691406 C 46.390625 547.042969 46.484375 546.402344 46.609375 545.761719 C 46.738281 545.125 46.894531 544.496094 47.085938 543.871094 C 47.273438 543.25 47.492188 542.636719 47.742188 542.035156 C 47.992188 541.433594 48.269531 540.847656 48.574219 540.273438 C 48.882812 539.699219 49.214844 539.140625 49.578125 538.601562 C 49.941406 538.058594 50.328125 537.539062 50.738281 537.035156 C 51.152344 536.53125 51.589844 536.050781 52.050781 535.589844 Z M 52.050781 535.589844 "/><path style=" stroke:none;fill-rule:nonzero;fill:#000000;fill-opacity:1;" d="M 225.050781 390.6875 L 384 450.296875 "/><path style=" stroke:none;fill-rule:nonzero;fill:#06a271;fill-opacity:1;" d="M 232.027344 372.085938 L 390.976562 431.691406 C 391.585938 431.917969 392.183594 432.175781 392.765625 432.464844 C 393.351562 432.75 393.917969 433.066406 394.472656 433.410156 C 395.023438 433.753906 395.558594 434.121094 396.078125 434.515625 C 396.59375 434.914062 397.089844 435.332031 397.566406 435.777344 C 398.039062 436.222656 398.492188 436.6875 398.921875 437.175781 C 399.351562 437.664062 399.757812 438.175781 400.136719 438.703125 C 400.515625 439.230469 400.867188 439.777344 401.195312 440.339844 C 401.519531 440.902344 401.820312 441.480469 402.085938 442.074219 C 402.355469 442.664062 402.597656 443.269531 402.804688 443.886719 C 403.015625 444.5 403.195312 445.125 403.34375 445.761719 C 403.492188 446.394531 403.609375 447.03125 403.695312 447.679688 C 403.78125 448.324219 403.835938 448.972656 403.855469 449.621094 C 403.878906 450.269531 403.871094 450.921875 403.828125 451.570312 C 403.785156 452.21875 403.710938 452.867188 403.605469 453.507812 C 403.503906 454.148438 403.367188 454.785156 403.199219 455.414062 C 403.03125 456.042969 402.832031 456.664062 402.605469 457.273438 C 402.375 457.878906 402.117188 458.476562 401.832031 459.0625 C 401.542969 459.644531 401.226562 460.214844 400.886719 460.765625 C 400.542969 461.320312 400.171875 461.855469 399.777344 462.371094 C 399.382812 462.886719 398.960938 463.382812 398.519531 463.859375 C 398.074219 464.335938 397.605469 464.789062 397.117188 465.21875 C 396.628906 465.648438 396.121094 466.050781 395.59375 466.429688 C 395.0625 466.8125 394.519531 467.164062 393.953125 467.488281 C 393.390625 467.816406 392.8125 468.113281 392.222656 468.382812 C 391.628906 468.652344 391.023438 468.890625 390.410156 469.101562 C 389.792969 469.3125 389.167969 469.492188 388.535156 469.640625 C 387.902344 469.789062 387.261719 469.90625 386.617188 469.992188 C 385.972656 470.078125 385.324219 470.128906 384.675781 470.152344 C 384.023438 470.175781 383.375 470.164062 382.722656 470.121094 C 382.074219 470.082031 381.429688 470.007812 380.785156 469.902344 C 380.144531 469.796875 379.507812 469.660156 378.878906 469.492188 C 378.25 469.324219 377.632812 469.128906 377.023438 468.898438 L 218.074219 409.292969 C 217.464844 409.0625 216.867188 408.804688 216.28125 408.519531 C 215.699219 408.230469 215.128906 407.917969 214.578125 407.574219 C 214.023438 407.230469 213.488281 406.863281 212.972656 406.464844 C 212.457031 406.070312 211.960938 405.652344 211.484375 405.207031 C 211.007812 404.761719 210.554688 404.296875 210.125 403.808594 C 209.695312 403.316406 209.292969 402.808594 208.914062 402.28125 C 208.53125 401.753906 208.179688 401.207031 207.855469 400.644531 C 207.527344 400.082031 207.230469 399.503906 206.960938 398.910156 C 206.691406 398.316406 206.453125 397.714844 206.242188 397.097656 C 206.03125 396.480469 205.851562 395.855469 205.703125 395.222656 C 205.554688 394.589844 205.4375 393.949219 205.351562 393.304688 C 205.269531 392.660156 205.214844 392.011719 205.191406 391.363281 C 205.167969 390.710938 205.179688 390.0625 205.222656 389.414062 C 205.261719 388.761719 205.335938 388.117188 205.441406 387.476562 C 205.546875 386.832031 205.683594 386.199219 205.851562 385.570312 C 206.019531 384.941406 206.21875 384.320312 206.445312 383.710938 C 206.675781 383.101562 206.933594 382.507812 207.21875 381.921875 C 207.507812 381.339844 207.820312 380.769531 208.164062 380.214844 C 208.507812 379.664062 208.875 379.128906 209.273438 378.613281 C 209.667969 378.09375 210.085938 377.597656 210.53125 377.125 C 210.976562 376.648438 211.441406 376.195312 211.929688 375.765625 C 212.417969 375.335938 212.929688 374.933594 213.457031 374.550781 C 213.984375 374.171875 214.53125 373.820312 215.09375 373.492188 C 215.65625 373.167969 216.234375 372.871094 216.828125 372.601562 C 217.417969 372.332031 218.023438 372.089844 218.640625 371.882812 C 219.253906 371.671875 219.878906 371.492188 220.515625 371.34375 C 221.148438 371.195312 221.785156 371.078125 222.433594 370.992188 C 223.078125 370.90625 223.726562 370.851562 224.375 370.832031 C 225.027344 370.808594 225.675781 370.820312 226.324219 370.859375 C 226.972656 370.902344 227.621094 370.976562 228.261719 371.082031 C 228.902344 371.1875 229.539062 371.324219 230.167969 371.492188 C 230.796875 371.65625 231.417969 371.855469 232.027344 372.085938 Z M 232.027344 372.085938 "/><path style=" stroke:none;fill-rule:nonzero;fill:#000000;fill-opacity:1;" d="M 384 450.296875 L 542.949219 211.867188 "/><path style=" stroke:none;fill-rule:nonzero;fill:#06a271;fill-opacity:1;" d="M 367.46875 439.273438 L 526.417969 200.847656 C 526.78125 200.304688 527.167969 199.785156 527.578125 199.28125 C 527.992188 198.777344 528.425781 198.292969 528.886719 197.835938 C 529.347656 197.375 529.828125 196.9375 530.328125 196.523438 C 530.832031 196.109375 531.355469 195.722656 531.894531 195.359375 C 532.4375 194.996094 532.992188 194.664062 533.566406 194.355469 C 534.140625 194.046875 534.726562 193.769531 535.328125 193.519531 C 535.929688 193.269531 536.539062 193.050781 537.164062 192.863281 C 537.785156 192.671875 538.417969 192.511719 539.054688 192.386719 C 539.691406 192.257812 540.335938 192.164062 540.984375 192.097656 C 541.628906 192.035156 542.277344 192 542.929688 192 C 543.582031 192 544.230469 192.03125 544.878906 192.09375 C 545.523438 192.15625 546.167969 192.25 546.804688 192.378906 C 547.445312 192.503906 548.074219 192.660156 548.699219 192.847656 C 549.320312 193.039062 549.933594 193.257812 550.535156 193.503906 C 551.136719 193.753906 551.722656 194.03125 552.296875 194.335938 C 552.871094 194.640625 553.429688 194.976562 553.972656 195.335938 C 554.511719 195.699219 555.035156 196.085938 555.539062 196.496094 C 556.042969 196.910156 556.523438 197.34375 556.984375 197.804688 C 557.445312 198.265625 557.882812 198.746094 558.296875 199.25 C 558.710938 199.75 559.097656 200.273438 559.460938 200.8125 C 559.820312 201.355469 560.15625 201.910156 560.464844 202.484375 C 560.769531 203.058594 561.050781 203.644531 561.300781 204.246094 C 561.550781 204.847656 561.769531 205.457031 561.957031 206.082031 C 562.148438 206.703125 562.304688 207.335938 562.433594 207.972656 C 562.5625 208.609375 562.65625 209.253906 562.722656 209.902344 C 562.785156 210.546875 562.820312 211.199219 562.820312 211.847656 C 562.820312 212.5 562.789062 213.148438 562.726562 213.796875 C 562.664062 214.441406 562.566406 215.085938 562.441406 215.726562 C 562.316406 216.363281 562.160156 216.992188 561.96875 217.617188 C 561.78125 218.238281 561.5625 218.851562 561.316406 219.453125 C 561.066406 220.054688 560.789062 220.640625 560.484375 221.214844 C 560.175781 221.789062 559.84375 222.347656 559.484375 222.890625 L 400.53125 461.316406 C 400.171875 461.859375 399.785156 462.378906 399.371094 462.882812 C 398.960938 463.386719 398.523438 463.871094 398.0625 464.328125 C 397.605469 464.789062 397.125 465.226562 396.621094 465.640625 C 396.117188 466.054688 395.597656 466.441406 395.054688 466.804688 C 394.515625 467.164062 393.957031 467.5 393.382812 467.808594 C 392.8125 468.117188 392.222656 468.394531 391.621094 468.644531 C 391.023438 468.894531 390.410156 469.113281 389.789062 469.300781 C 389.164062 469.492188 388.535156 469.652344 387.898438 469.777344 C 387.257812 469.90625 386.617188 470 385.96875 470.066406 C 385.320312 470.128906 384.671875 470.164062 384.019531 470.164062 C 383.371094 470.164062 382.722656 470.132812 382.074219 470.070312 C 381.425781 470.007812 380.78125 469.914062 380.144531 469.785156 C 379.503906 469.660156 378.875 469.503906 378.253906 469.3125 C 377.628906 469.125 377.015625 468.90625 376.414062 468.660156 C 375.8125 468.410156 375.226562 468.132812 374.652344 467.828125 C 374.078125 467.519531 373.519531 467.1875 372.980469 466.828125 C 372.4375 466.464844 371.914062 466.078125 371.410156 465.667969 C 370.90625 465.253906 370.425781 464.820312 369.964844 464.359375 C 369.503906 463.898438 369.066406 463.417969 368.652344 462.914062 C 368.242188 462.414062 367.851562 461.890625 367.492188 461.351562 C 367.128906 460.808594 366.792969 460.253906 366.488281 459.679688 C 366.179688 459.105469 365.902344 458.519531 365.652344 457.917969 C 365.402344 457.316406 365.183594 456.703125 364.992188 456.082031 C 364.804688 455.460938 364.644531 454.828125 364.515625 454.191406 C 364.390625 453.554688 364.292969 452.910156 364.230469 452.261719 C 364.164062 451.617188 364.132812 450.964844 364.132812 450.316406 C 364.128906 449.664062 364.160156 449.015625 364.226562 448.367188 C 364.289062 447.71875 364.382812 447.078125 364.507812 446.4375 C 364.636719 445.800781 364.792969 445.171875 364.980469 444.546875 C 365.167969 443.925781 365.386719 443.3125 365.636719 442.710938 C 365.882812 442.109375 366.160156 441.519531 366.46875 440.949219 C 366.773438 440.375 367.105469 439.816406 367.46875 439.273438 Z M 367.46875 439.273438 "/><path style=" stroke:none;fill-rule:nonzero;fill:#000000;fill-opacity:1;" d="M 542.949219 211.867188 L 701.902344 192 "/><path style=" stroke:none;fill-rule:nonzero;fill:#06a271;fill-opacity:1;" d="M 540.488281 192.152344 L 699.4375 172.285156 C 700.082031 172.203125 700.730469 172.15625 701.382812 172.136719 C 702.03125 172.121094 702.683594 172.136719 703.332031 172.183594 C 703.980469 172.230469 704.625 172.308594 705.265625 172.417969 C 705.90625 172.527344 706.542969 172.667969 707.167969 172.84375 C 707.796875 173.015625 708.414062 173.21875 709.023438 173.449219 C 709.628906 173.683594 710.222656 173.945312 710.804688 174.238281 C 711.386719 174.53125 711.953125 174.847656 712.503906 175.195312 C 713.054688 175.542969 713.585938 175.917969 714.101562 176.316406 C 714.613281 176.714844 715.105469 177.140625 715.578125 177.585938 C 716.050781 178.035156 716.5 178.503906 716.925781 178.996094 C 717.351562 179.488281 717.75 180 718.128906 180.53125 C 718.503906 181.0625 718.851562 181.613281 719.171875 182.179688 C 719.496094 182.742188 719.789062 183.324219 720.050781 183.917969 C 720.316406 184.511719 720.550781 185.117188 720.757812 185.738281 C 720.960938 186.355469 721.136719 186.980469 721.28125 187.613281 C 721.425781 188.25 721.535156 188.890625 721.617188 189.535156 C 721.699219 190.179688 721.746094 190.828125 721.765625 191.480469 C 721.78125 192.128906 721.765625 192.78125 721.71875 193.429688 C 721.671875 194.078125 721.59375 194.722656 721.484375 195.363281 C 721.375 196.007812 721.230469 196.640625 721.058594 197.269531 C 720.886719 197.894531 720.683594 198.511719 720.449219 199.121094 C 720.21875 199.726562 719.957031 200.324219 719.664062 200.902344 C 719.371094 201.484375 719.050781 202.050781 718.707031 202.601562 C 718.359375 203.152344 717.984375 203.683594 717.585938 204.199219 C 717.1875 204.710938 716.761719 205.203125 716.3125 205.675781 C 715.867188 206.148438 715.394531 206.597656 714.902344 207.023438 C 714.410156 207.449219 713.898438 207.851562 713.367188 208.226562 C 712.835938 208.601562 712.289062 208.949219 711.722656 209.273438 C 711.15625 209.59375 710.578125 209.886719 709.984375 210.152344 C 709.386719 210.414062 708.78125 210.652344 708.164062 210.855469 C 707.546875 211.0625 706.921875 211.234375 706.285156 211.378906 C 705.652344 211.523438 705.011719 211.632812 704.367188 211.714844 L 545.414062 231.585938 C 544.769531 231.664062 544.121094 231.714844 543.472656 231.730469 C 542.820312 231.746094 542.171875 231.734375 541.523438 231.6875 C 540.871094 231.640625 540.226562 231.5625 539.585938 231.449219 C 538.945312 231.339844 538.308594 231.199219 537.683594 231.027344 C 537.054688 230.855469 536.4375 230.652344 535.832031 230.417969 C 535.222656 230.183594 534.628906 229.921875 534.046875 229.628906 C 533.464844 229.339844 532.898438 229.019531 532.347656 228.671875 C 531.796875 228.324219 531.265625 227.953125 530.753906 227.550781 C 530.238281 227.152344 529.746094 226.730469 529.273438 226.28125 C 528.800781 225.832031 528.351562 225.363281 527.925781 224.871094 C 527.5 224.378906 527.101562 223.867188 526.726562 223.335938 C 526.347656 222.804688 526 222.257812 525.679688 221.691406 C 525.359375 221.125 525.0625 220.542969 524.800781 219.949219 C 524.535156 219.355469 524.300781 218.75 524.09375 218.132812 C 523.890625 217.515625 523.714844 216.886719 523.570312 216.253906 C 523.429688 215.621094 523.316406 214.980469 523.234375 214.332031 C 523.15625 213.6875 523.105469 213.039062 523.089844 212.390625 C 523.070312 211.738281 523.085938 211.089844 523.132812 210.441406 C 523.179688 209.789062 523.257812 209.144531 523.367188 208.503906 C 523.480469 207.863281 523.621094 207.226562 523.792969 206.601562 C 523.964844 205.972656 524.167969 205.355469 524.402344 204.75 C 524.636719 204.140625 524.898438 203.546875 525.1875 202.964844 C 525.480469 202.382812 525.800781 201.816406 526.148438 201.265625 C 526.496094 200.714844 526.867188 200.183594 527.265625 199.671875 C 527.667969 199.15625 528.089844 198.664062 528.539062 198.191406 C 528.984375 197.71875 529.457031 197.269531 529.949219 196.84375 C 530.441406 196.417969 530.953125 196.019531 531.484375 195.644531 C 532.015625 195.265625 532.5625 194.917969 533.128906 194.597656 C 533.695312 194.277344 534.273438 193.984375 534.871094 193.71875 C 535.464844 193.453125 536.070312 193.21875 536.6875 193.011719 C 537.304688 192.808594 537.929688 192.632812 538.566406 192.488281 C 539.199219 192.347656 539.839844 192.234375 540.488281 192.152344 Z M 540.488281 192.152344 "/><path style=" stroke:none;fill-rule:nonzero;fill:#06a271;fill-opacity:1;" d="M 110.25 549.640625 C 110.25 548.191406 110.179688 546.75 110.039062 545.3125 C 109.898438 543.871094 109.683594 542.445312 109.402344 541.027344 C 109.121094 539.605469 108.769531 538.207031 108.351562 536.824219 C 107.929688 535.4375 107.445312 534.078125 106.890625 532.742188 C 106.335938 531.40625 105.71875 530.101562 105.039062 528.824219 C 104.355469 527.550781 103.613281 526.3125 102.808594 525.109375 C 102.007812 523.90625 101.144531 522.746094 100.230469 521.628906 C 99.3125 520.511719 98.339844 519.441406 97.320312 518.417969 C 96.296875 517.394531 95.226562 516.425781 94.109375 515.507812 C 92.992188 514.589844 91.832031 513.730469 90.628906 512.925781 C 89.425781 512.125 88.1875 511.382812 86.910156 510.699219 C 85.636719 510.019531 84.332031 509.402344 82.996094 508.847656 C 81.660156 508.292969 80.300781 507.808594 78.914062 507.386719 C 77.53125 506.96875 76.128906 506.617188 74.710938 506.335938 C 73.292969 506.050781 71.863281 505.839844 70.425781 505.699219 C 68.988281 505.558594 67.542969 505.488281 66.097656 505.488281 C 64.652344 505.488281 63.210938 505.558594 61.769531 505.699219 C 60.332031 505.839844 58.902344 506.050781 57.484375 506.335938 C 56.066406 506.617188 54.664062 506.96875 53.28125 507.386719 C 51.898438 507.808594 50.539062 508.292969 49.203125 508.847656 C 47.867188 509.402344 46.558594 510.019531 45.285156 510.699219 C 44.007812 511.382812 42.769531 512.125 41.566406 512.925781 C 40.367188 513.730469 39.207031 514.589844 38.089844 515.507812 C 36.96875 516.425781 35.898438 517.394531 34.878906 518.417969 C 33.855469 519.441406 32.886719 520.511719 31.96875 521.628906 C 31.050781 522.746094 30.191406 523.90625 29.386719 525.109375 C 28.582031 526.3125 27.839844 527.550781 27.160156 528.824219 C 26.476562 530.101562 25.859375 531.40625 25.304688 532.742188 C 24.753906 534.078125 24.265625 535.4375 23.847656 536.824219 C 23.425781 538.207031 23.074219 539.605469 22.792969 541.027344 C 22.511719 542.445312 22.300781 543.871094 22.15625 545.3125 C 22.015625 546.75 21.945312 548.191406 21.945312 549.640625 C 21.945312 551.085938 22.015625 552.527344 22.15625 553.96875 C 22.300781 555.40625 22.511719 556.835938 22.792969 558.253906 C 23.074219 559.671875 23.425781 561.074219 23.847656 562.457031 C 24.265625 563.839844 24.753906 565.199219 25.304688 566.535156 C 25.859375 567.871094 26.476562 569.175781 27.160156 570.453125 C 27.839844 571.726562 28.582031 572.96875 29.386719 574.167969 C 30.191406 575.371094 31.050781 576.53125 31.96875 577.648438 C 32.886719 578.765625 33.855469 579.835938 34.878906 580.859375 C 35.898438 581.882812 36.96875 582.851562 38.089844 583.769531 C 39.207031 584.6875 40.367188 585.546875 41.566406 586.351562 C 42.769531 587.15625 44.007812 587.898438 45.285156 588.578125 C 46.558594 589.261719 47.867188 589.878906 49.203125 590.429688 C 50.539062 590.984375 51.898438 591.472656 53.28125 591.890625 C 54.664062 592.3125 56.066406 592.660156 57.484375 592.945312 C 58.902344 593.226562 60.332031 593.4375 61.769531 593.578125 C 63.210938 593.722656 64.652344 593.792969 66.097656 593.792969 C 67.542969 593.792969 68.988281 593.722656 70.425781 593.578125 C 71.863281 593.4375 73.292969 593.226562 74.710938 592.945312 C 76.128906 592.660156 77.53125 592.3125 78.914062 591.890625 C 80.300781 591.472656 81.660156 590.984375 82.996094 590.429688 C 84.332031 589.878906 85.636719 589.261719 86.910156 588.578125 C 88.1875 587.898438 89.425781 587.15625 90.628906 586.351562 C 91.832031 585.546875 92.992188 584.6875 94.109375 583.769531 C 95.226562 582.851562 96.296875 581.882812 97.320312 580.859375 C 98.339844 579.835938 99.3125 578.765625 100.230469 577.648438 C 101.144531 576.53125 102.007812 575.371094 102.808594 574.167969 C 103.613281 572.96875 104.355469 571.726562 105.039062 570.453125 C 105.71875 569.175781 106.335938 567.871094 106.890625 566.535156 C 107.445312 565.199219 107.929688 563.839844 108.351562 562.457031 C 108.769531 561.074219 109.121094 559.671875 109.402344 558.253906 C 109.683594 556.835938 109.898438 555.40625 110.039062 553.96875 C 110.179688 552.527344 110.25 551.085938 110.25 549.640625 Z M 110.25 549.640625 "/><path style=" stroke:none;fill-rule:nonzero;fill:#06a271;fill-opacity:1;" d="M 269.203125 390.6875 C 269.203125 389.242188 269.132812 387.800781 268.988281 386.359375 C 268.847656 384.921875 268.636719 383.492188 268.355469 382.074219 C 268.070312 380.65625 267.722656 379.253906 267.300781 377.871094 C 266.882812 376.488281 266.394531 375.128906 265.839844 373.792969 C 265.289062 372.457031 264.671875 371.148438 263.988281 369.875 C 263.308594 368.597656 262.5625 367.359375 261.761719 366.160156 C 260.957031 364.957031 260.097656 363.796875 259.179688 362.679688 C 258.261719 361.558594 257.292969 360.488281 256.269531 359.46875 C 255.246094 358.445312 254.175781 357.476562 253.058594 356.558594 C 251.941406 355.640625 250.78125 354.78125 249.578125 353.976562 C 248.375 353.171875 247.136719 352.429688 245.863281 351.75 C 244.585938 351.066406 243.28125 350.449219 241.945312 349.894531 C 240.609375 349.34375 239.25 348.855469 237.867188 348.4375 C 236.480469 348.015625 235.082031 347.667969 233.664062 347.382812 C 232.246094 347.101562 230.816406 346.890625 229.375 346.75 C 227.9375 346.605469 226.496094 346.535156 225.050781 346.535156 C 223.601562 346.535156 222.160156 346.605469 220.722656 346.75 C 219.28125 346.890625 217.855469 347.101562 216.433594 347.382812 C 215.015625 347.667969 213.617188 348.015625 212.230469 348.4375 C 210.847656 348.855469 209.488281 349.34375 208.152344 349.894531 C 206.816406 350.449219 205.511719 351.066406 204.234375 351.75 C 202.960938 352.429688 201.722656 353.171875 200.519531 353.976562 C 199.316406 354.78125 198.15625 355.640625 197.039062 356.558594 C 195.921875 357.476562 194.851562 358.445312 193.828125 359.46875 C 192.804688 360.488281 191.835938 361.558594 190.917969 362.679688 C 190 363.796875 189.140625 364.957031 188.335938 366.160156 C 187.535156 367.359375 186.792969 368.597656 186.109375 369.875 C 185.429688 371.148438 184.808594 372.457031 184.257812 373.792969 C 183.703125 375.128906 183.21875 376.488281 182.796875 377.871094 C 182.378906 379.253906 182.027344 380.65625 181.746094 382.074219 C 181.460938 383.492188 181.25 384.921875 181.109375 386.359375 C 180.96875 387.800781 180.894531 389.242188 180.894531 390.6875 C 180.894531 392.132812 180.96875 393.578125 181.109375 395.015625 C 181.25 396.457031 181.460938 397.882812 181.746094 399.300781 C 182.027344 400.71875 182.378906 402.121094 182.796875 403.503906 C 183.21875 404.890625 183.703125 406.25 184.257812 407.585938 C 184.808594 408.921875 185.429688 410.226562 186.109375 411.503906 C 186.792969 412.777344 187.535156 414.015625 188.335938 415.21875 C 189.140625 416.421875 190 417.582031 190.917969 418.699219 C 191.835938 419.816406 192.804688 420.886719 193.828125 421.910156 C 194.851562 422.933594 195.921875 423.902344 197.039062 424.820312 C 198.15625 425.738281 199.316406 426.597656 200.519531 427.398438 C 201.722656 428.203125 202.960938 428.945312 204.234375 429.628906 C 205.511719 430.308594 206.816406 430.925781 208.152344 431.480469 C 209.488281 432.035156 210.847656 432.519531 212.230469 432.941406 C 213.617188 433.359375 215.015625 433.710938 216.433594 433.992188 C 217.855469 434.273438 219.28125 434.488281 220.722656 434.628906 C 222.160156 434.769531 223.601562 434.839844 225.050781 434.839844 C 226.496094 434.839844 227.9375 434.769531 229.375 434.628906 C 230.816406 434.488281 232.246094 434.273438 233.664062 433.992188 C 235.082031 433.710938 236.480469 433.359375 237.867188 432.941406 C 239.25 432.519531 240.609375 432.035156 241.945312 431.480469 C 243.28125 430.925781 244.585938 430.308594 245.863281 429.628906 C 247.136719 428.945312 248.375 428.203125 249.578125 427.398438 C 250.78125 426.597656 251.941406 425.738281 253.058594 424.820312 C 254.175781 423.902344 255.246094 422.933594 256.269531 421.910156 C 257.292969 420.886719 258.261719 419.816406 259.179688 418.699219 C 260.097656 417.582031 260.957031 416.421875 261.761719 415.21875 C 262.5625 414.015625 263.308594 412.777344 263.988281 411.503906 C 264.671875 410.226562 265.289062 408.921875 265.839844 407.585938 C 266.394531 406.25 266.882812 404.890625 267.300781 403.503906 C 267.722656 402.121094 268.070312 400.71875 268.355469 399.300781 C 268.636719 397.882812 268.847656 396.457031 268.988281 395.015625 C 269.132812 393.578125 269.203125 392.132812 269.203125 390.6875 Z M 269.203125 390.6875 "/><path style=" stroke:none;fill-rule:nonzero;fill:#06a271;fill-opacity:1;" d="M 428.152344 450.296875 C 428.152344 448.847656 428.082031 447.40625 427.941406 445.96875 C 427.796875 444.527344 427.585938 443.097656 427.304688 441.679688 C 427.023438 440.261719 426.671875 438.863281 426.25 437.476562 C 425.832031 436.09375 425.34375 434.734375 424.792969 433.398438 C 424.238281 432.0625 423.621094 430.757812 422.9375 429.480469 C 422.257812 428.207031 421.515625 426.96875 420.710938 425.765625 C 419.910156 424.5625 419.046875 423.402344 418.128906 422.285156 C 417.214844 421.167969 416.242188 420.097656 415.222656 419.074219 C 414.199219 418.050781 413.128906 417.082031 412.011719 416.164062 C 410.890625 415.246094 409.730469 414.386719 408.53125 413.582031 C 407.328125 412.78125 406.089844 412.039062 404.8125 411.355469 C 403.539062 410.675781 402.234375 410.054688 400.898438 409.503906 C 399.5625 408.949219 398.199219 408.464844 396.816406 408.042969 C 395.433594 407.625 394.03125 407.273438 392.613281 406.992188 C 391.195312 406.707031 389.765625 406.496094 388.328125 406.355469 C 386.886719 406.214844 385.445312 406.140625 384 406.140625 C 382.554688 406.140625 381.109375 406.214844 379.671875 406.355469 C 378.234375 406.496094 376.804688 406.707031 375.386719 406.992188 C 373.96875 407.273438 372.566406 407.625 371.183594 408.042969 C 369.800781 408.464844 368.4375 408.949219 367.101562 409.503906 C 365.765625 410.054688 364.460938 410.675781 363.1875 411.355469 C 361.910156 412.039062 360.671875 412.78125 359.46875 413.582031 C 358.265625 414.386719 357.105469 415.246094 355.988281 416.164062 C 354.871094 417.082031 353.800781 418.050781 352.777344 419.074219 C 351.757812 420.097656 350.785156 421.167969 349.871094 422.285156 C 348.953125 423.402344 348.089844 424.5625 347.289062 425.765625 C 346.484375 426.96875 345.742188 428.207031 345.058594 429.480469 C 344.378906 430.757812 343.761719 432.0625 343.207031 433.398438 C 342.65625 434.734375 342.167969 436.09375 341.75 437.476562 C 341.328125 438.863281 340.976562 440.261719 340.695312 441.679688 C 340.414062 443.097656 340.203125 444.527344 340.058594 445.96875 C 339.917969 447.40625 339.847656 448.847656 339.847656 450.296875 C 339.847656 451.742188 339.917969 453.183594 340.058594 454.621094 C 340.203125 456.0625 340.414062 457.492188 340.695312 458.910156 C 340.976562 460.328125 341.328125 461.726562 341.75 463.113281 C 342.167969 464.496094 342.65625 465.855469 343.207031 467.191406 C 343.761719 468.527344 344.378906 469.832031 345.058594 471.109375 C 345.742188 472.382812 346.484375 473.621094 347.289062 474.824219 C 348.089844 476.027344 348.953125 477.1875 349.871094 478.304688 C 350.785156 479.421875 351.757812 480.492188 352.777344 481.515625 C 353.800781 482.539062 354.871094 483.507812 355.988281 484.425781 C 357.105469 485.34375 358.265625 486.203125 359.46875 487.007812 C 360.671875 487.808594 361.910156 488.554688 363.1875 489.234375 C 364.460938 489.917969 365.765625 490.535156 367.101562 491.085938 C 368.4375 491.640625 369.800781 492.128906 371.183594 492.546875 C 372.566406 492.964844 373.96875 493.316406 375.386719 493.601562 C 376.804688 493.882812 378.234375 494.09375 379.671875 494.234375 C 381.109375 494.378906 382.554688 494.449219 384 494.449219 C 385.445312 494.449219 386.886719 494.378906 388.328125 494.234375 C 389.765625 494.09375 391.195312 493.882812 392.613281 493.601562 C 394.03125 493.316406 395.433594 492.964844 396.816406 492.546875 C 398.199219 492.128906 399.558594 491.640625 400.898438 491.085938 C 402.234375 490.535156 403.539062 489.917969 404.8125 489.234375 C 406.089844 488.554688 407.328125 487.808594 408.53125 487.007812 C 409.730469 486.203125 410.890625 485.34375 412.011719 484.425781 C 413.128906 483.507812 414.199219 482.539062 415.222656 481.515625 C 416.242188 480.492188 417.214844 479.421875 418.128906 478.304688 C 419.046875 477.1875 419.910156 476.027344 420.710938 474.824219 C 421.515625 473.621094 422.257812 472.382812 422.9375 471.109375 C 423.621094 469.832031 424.238281 468.527344 424.792969 467.191406 C 425.34375 465.855469 425.832031 464.496094 426.25 463.113281 C 426.671875 461.726562 427.023438 460.328125 427.304688 458.910156 C 427.585938 457.492188 427.796875 456.0625 427.941406 454.621094 C 428.082031 453.183594 428.152344 451.742188 428.152344 450.296875 Z M 428.152344 450.296875 "/><path style=" stroke:none;fill-rule:nonzero;fill:#06a271;fill-opacity:1;" d="M 587.105469 211.867188 C 587.105469 210.421875 587.03125 208.980469 586.890625 207.542969 C 586.75 206.101562 586.539062 204.671875 586.253906 203.253906 C 585.972656 201.835938 585.621094 200.4375 585.203125 199.050781 C 584.78125 197.667969 584.296875 196.308594 583.742188 194.972656 C 583.1875 193.636719 582.570312 192.332031 581.890625 191.054688 C 581.207031 189.78125 580.464844 188.542969 579.664062 187.339844 C 578.859375 186.136719 578 184.976562 577.082031 183.859375 C 576.164062 182.742188 575.195312 181.671875 574.171875 180.648438 C 573.148438 179.625 572.078125 178.65625 570.960938 177.738281 C 569.84375 176.820312 568.683594 175.960938 567.480469 175.15625 C 566.277344 174.355469 565.039062 173.609375 563.765625 172.929688 C 562.488281 172.246094 561.183594 171.628906 559.847656 171.078125 C 558.511719 170.523438 557.152344 170.035156 555.769531 169.617188 C 554.382812 169.199219 552.984375 168.847656 551.566406 168.5625 C 550.144531 168.28125 548.71875 168.070312 547.277344 167.929688 C 545.839844 167.785156 544.398438 167.714844 542.949219 167.714844 C 541.503906 167.714844 540.0625 167.785156 538.625 167.929688 C 537.183594 168.070312 535.753906 168.28125 534.335938 168.5625 C 532.917969 168.847656 531.519531 169.199219 530.132812 169.617188 C 528.75 170.035156 527.390625 170.523438 526.054688 171.078125 C 524.71875 171.628906 523.414062 172.246094 522.136719 172.929688 C 520.863281 173.609375 519.621094 174.355469 518.421875 175.15625 C 517.21875 175.960938 516.058594 176.820312 514.941406 177.738281 C 513.824219 178.65625 512.753906 179.625 511.730469 180.648438 C 510.707031 181.671875 509.738281 182.742188 508.820312 183.859375 C 507.902344 184.976562 507.042969 186.136719 506.238281 187.339844 C 505.433594 188.542969 504.691406 189.78125 504.011719 191.054688 C 503.328125 192.332031 502.710938 193.636719 502.160156 194.972656 C 501.605469 196.308594 501.117188 197.667969 500.699219 199.050781 C 500.277344 200.4375 499.929688 201.835938 499.644531 203.253906 C 499.363281 204.671875 499.152344 206.101562 499.011719 207.542969 C 498.867188 208.980469 498.796875 210.421875 498.796875 211.867188 C 498.796875 213.316406 498.867188 214.757812 499.011719 216.195312 C 499.152344 217.636719 499.363281 219.0625 499.644531 220.484375 C 499.929688 221.902344 500.277344 223.300781 500.699219 224.6875 C 501.117188 226.070312 501.605469 227.429688 502.160156 228.765625 C 502.710938 230.101562 503.328125 231.40625 504.011719 232.683594 C 504.691406 233.957031 505.433594 235.195312 506.238281 236.398438 C 507.042969 237.601562 507.902344 238.761719 508.820312 239.878906 C 509.738281 240.996094 510.707031 242.066406 511.730469 243.089844 C 512.753906 244.113281 513.824219 245.082031 514.941406 246 C 516.058594 246.917969 517.21875 247.777344 518.421875 248.582031 C 519.621094 249.382812 520.863281 250.125 522.136719 250.808594 C 523.414062 251.488281 524.71875 252.109375 526.054688 252.660156 C 527.390625 253.214844 528.75 253.699219 530.132812 254.121094 C 531.519531 254.539062 532.917969 254.890625 534.335938 255.171875 C 535.753906 255.457031 537.183594 255.667969 538.625 255.808594 C 540.0625 255.949219 541.503906 256.023438 542.949219 256.023438 C 544.398438 256.023438 545.839844 255.949219 547.277344 255.808594 C 548.71875 255.667969 550.144531 255.457031 551.566406 255.171875 C 552.984375 254.890625 554.382812 254.539062 555.769531 254.121094 C 557.152344 253.699219 558.511719 253.214844 559.847656 252.660156 C 561.183594 252.109375 562.488281 251.488281 563.765625 250.808594 C 565.039062 250.125 566.277344 249.382812 567.480469 248.582031 C 568.683594 247.777344 569.84375 246.917969 570.960938 246 C 572.078125 245.082031 573.148438 244.113281 574.171875 243.089844 C 575.195312 242.066406 576.164062 240.996094 577.082031 239.878906 C 578 238.761719 578.859375 237.601562 579.664062 236.398438 C 580.464844 235.195312 581.207031 233.957031 581.890625 232.683594 C 582.570312 231.40625 583.1875 230.101562 583.742188 228.765625 C 584.296875 227.429688 584.78125 226.070312 585.203125 224.6875 C 585.621094 223.300781 585.972656 221.902344 586.253906 220.484375 C 586.539062 219.0625 586.75 217.636719 586.890625 216.195312 C 587.03125 214.757812 587.105469 213.316406 587.105469 211.867188 Z M 587.105469 211.867188 "/><path style=" stroke:none;fill-rule:nonzero;fill:#06a271;fill-opacity:1;" d="M 746.054688 192 C 746.054688 190.554688 745.984375 189.113281 745.84375 187.671875 C 745.699219 186.234375 745.488281 184.804688 745.207031 183.386719 C 744.925781 181.96875 744.574219 180.566406 744.152344 179.183594 C 743.734375 177.800781 743.246094 176.4375 742.695312 175.101562 C 742.140625 173.765625 741.523438 172.460938 740.839844 171.1875 C 740.160156 169.910156 739.417969 168.671875 738.613281 167.46875 C 737.808594 166.265625 736.949219 165.109375 736.03125 163.988281 C 735.113281 162.871094 734.144531 161.800781 733.121094 160.777344 C 732.101562 159.757812 731.03125 158.785156 729.910156 157.871094 C 728.792969 156.953125 727.632812 156.089844 726.433594 155.289062 C 725.230469 154.484375 723.992188 153.742188 722.714844 153.058594 C 721.441406 152.378906 720.132812 151.761719 718.796875 151.207031 C 717.460938 150.65625 716.101562 150.167969 714.71875 149.75 C 713.335938 149.328125 711.933594 148.976562 710.515625 148.695312 C 709.097656 148.414062 707.667969 148.203125 706.230469 148.058594 C 704.789062 147.917969 703.347656 147.847656 701.902344 147.847656 C 700.457031 147.847656 699.011719 147.917969 697.574219 148.058594 C 696.132812 148.203125 694.707031 148.414062 693.289062 148.695312 C 691.871094 148.976562 690.46875 149.328125 689.085938 149.75 C 687.699219 150.167969 686.339844 150.65625 685.003906 151.207031 C 683.667969 151.761719 682.363281 152.378906 681.089844 153.058594 C 679.8125 153.742188 678.574219 154.484375 677.371094 155.289062 C 676.167969 156.089844 675.007812 156.953125 673.890625 157.871094 C 672.773438 158.785156 671.703125 159.757812 670.679688 160.777344 C 669.65625 161.800781 668.6875 162.871094 667.769531 163.988281 C 666.851562 165.109375 665.992188 166.265625 665.191406 167.46875 C 664.386719 168.671875 663.644531 169.910156 662.960938 171.1875 C 662.28125 172.460938 661.664062 173.765625 661.109375 175.101562 C 660.554688 176.4375 660.070312 177.800781 659.648438 179.183594 C 659.230469 180.566406 658.878906 181.96875 658.597656 183.386719 C 658.316406 184.804688 658.101562 186.234375 657.960938 187.671875 C 657.820312 189.113281 657.75 190.554688 657.75 192 C 657.75 193.445312 657.820312 194.886719 657.960938 196.328125 C 658.101562 197.765625 658.316406 199.195312 658.597656 200.613281 C 658.878906 202.03125 659.230469 203.433594 659.648438 204.816406 C 660.070312 206.199219 660.554688 207.5625 661.109375 208.898438 C 661.664062 210.234375 662.28125 211.539062 662.960938 212.8125 C 663.644531 214.089844 664.386719 215.328125 665.191406 216.53125 C 665.992188 217.734375 666.851562 218.890625 667.769531 220.011719 C 668.6875 221.128906 669.65625 222.199219 670.679688 223.222656 C 671.703125 224.242188 672.773438 225.214844 673.890625 226.128906 C 675.007812 227.046875 676.167969 227.910156 677.371094 228.710938 C 678.574219 229.515625 679.8125 230.257812 681.089844 230.941406 C 682.363281 231.621094 683.667969 232.238281 685.003906 232.792969 C 686.339844 233.34375 687.699219 233.832031 689.085938 234.25 C 690.46875 234.671875 691.871094 235.023438 693.289062 235.304688 C 694.707031 235.585938 696.132812 235.796875 697.574219 235.941406 C 699.011719 236.082031 700.457031 236.152344 701.902344 236.152344 C 703.347656 236.152344 704.789062 236.082031 706.230469 235.941406 C 707.667969 235.796875 709.097656 235.585938 710.515625 235.304688 C 711.933594 235.023438 713.335938 234.671875 714.71875 234.25 C 716.101562 233.832031 717.460938 233.34375 718.796875 232.792969 C 720.132812 232.238281 721.441406 231.621094 722.714844 230.941406 C 723.992188 230.257812 725.230469 229.515625 726.429688 228.710938 C 727.632812 227.910156 728.792969 227.046875 729.910156 226.128906 C 731.03125 225.214844 732.101562 224.242188 733.121094 223.222656 C 734.144531 222.199219 735.113281 221.128906 736.03125 220.011719 C 736.949219 218.890625 737.808594 217.734375 738.613281 216.53125 C 739.417969 215.328125 740.160156 214.089844 740.839844 212.8125 C 741.523438 211.539062 742.140625 210.234375 742.695312 208.898438 C 743.246094 207.5625 743.734375 206.199219 744.152344 204.816406 C 744.574219 203.433594 744.925781 202.03125 745.207031 200.613281 C 745.488281 199.195312 745.699219 197.765625 745.84375 196.328125 C 745.984375 194.886719 746.054688 193.445312 746.054688 192 Z M 746.054688 192 "/></g></svg>